# xmcd
#
# Track frame offsets:
#	150
#	21627
#	42874
#	61018
#	77823
#	92754
#	111303
#	126084
#	139066
#
# Disc length: 2183 seconds
#
# Revision: 0
# Processed by: cddbd v1.5.2PL0 Copyright (c) Steve Scherf et al.
# Submitted via: audiograbber 1.83.01
#
DISCID=77088509
DTITLE=xyz - ABCD
DYEAR=1900
DGENRE=
TTITLE0=Shambhu sutaya
TTITLE1=Bezubaan
TTITLE2=Psycho re
TTITLE3=Man basiyo saawariyo
TTITLE4=Chandu ki girlfriend
TTITLE5=Duhaai
TTITLE6=Sorry sorry
TTITLE7=Kar ja re ya mar ja re
TTITLE8=Sadda dil vi tu
EXTD=
EXTT0=
EXTT1=
EXTT2=
EXTT3=
EXTT4=
EXTT5=
EXTT6=
EXTT7=
EXTT8=
PLAYORDER=
